<?xml version="1.0" encoding="iso-8859-1"?>
<!-- Generator: Adobe Illustrator 19.0.0, SVG Export Plug-In . SVG Version: 6.00 Build 0)  -->
<svg version="1.1" id="Capa_1" xmlns="http://www.w3.org/2000/svg" xmlns:xlink="http://www.w3.org/1999/xlink" x="0px" y="0px"
	 viewBox="0 0 512.002 512.002" style="enable-background:new 0 0 512.002 512.002;" xml:space="preserve">
<g>
	<g>
		<path d="M509.596,340.303c-1.67-6.584-4.517-12.907-8.038-18.854c-18.32,15-59.888,38.804-85.512,50.334l4.929,12.321
			c7.405,18.512-21.575,29.5-28.903,11.133l-4.85-12.123c-20.475,7.365-41.576,12.823-63.021,16.655l5.733,14.335
			c3.929,9.824-3.307,20.566-13.931,20.566c-5.947,0-11.587-3.56-13.931-9.434l-8.498-21.249
			c-12.46,1.214-24.977,2.045-37.571,2.045c-6.542,0-13.054-0.342-19.567-0.672l3.497,8.743c3.929,9.824-3.307,20.566-13.931,20.566
			c-5.947,0-11.587-3.56-13.931-9.434l-9.142-22.855c-17.668-2.441-35.116-6.112-52.242-10.948
			c-0.646,5.257-3.854,10.062-9.119,12.167c-7.604,3.065-17.035-0.617-20.126-8.364l-6.273-15.683
			c-39.011-15.148-58.458-28.284-94.406-50.191c-3.622-2.208-6.87-4.796-10.139-7.363c-3.369,5.799-6.182,11.911-7.806,18.305
			c-14.253,56.221,28.77,81.372,57.217,98.013c59.756,35.396,118.063,57.949,195.965,57.949
			c108.001-0.026,175.812-45.573,220.036-72.524C504.381,406.47,517.857,372.94,509.596,340.303z"/>
	</g>
</g>
<g>
	<g>
		<path d="M509.184,220.32c-6.035-23.804-23.657-42.979-47.153-51.27c-23.936-8.481-50.259-4.482-70.356,10.591
			c-1.247,0.936-2.65,1.549-3.913,2.455l32.8,82.007c3.076,7.69-0.674,16.421-8.364,19.497c-1.816,0.732-3.706,1.069-5.566,1.069
			c-5.947,0-11.587-3.56-13.931-9.434l-30.769-76.93c-19.409,10.232-40.707,17.042-61.831,21.218l29.833,74.579
			c3.929,9.824-3.307,20.566-13.931,20.566c-5.947,0-11.587-3.56-13.931-9.434l-32.77-81.92c-19.911,1.165-39.8-0.216-59.392-4.274
			l30.024,75.06c7.405,18.512-20.533,29.5-27.861,11.133l-38.888-97.223c-18.29-7.198-37.556-16.221-53.764-28.372
			c-1.946-1.459-4.18-2.313-6.235-3.563l35.209,88.026c7.405,18.512-20.533,29.5-27.861,11.133l-43.991-109.98
			c-9.199-0.262-18.483,0.601-27.479,3.779c-23.481,8.306-40.564,27.466-46.6,51.27c-8.263,32.639,4.66,66.169,33.005,83.439
			c38.664,23.564,109.494,72.525,220.533,72.525c76.807-0.018,135.574-22.176,195.965-57.949
			C480.414,301.677,523.437,276.526,509.184,220.32z"/>
	</g>
</g>
<g>
	<g>
		<path d="M190.07,103.219c14.238-9.492,22.734-25.371,22.734-42.48s-8.496-32.988-22.734-42.48
			c-6.914-4.585-16.23-2.754-20.801,4.16c-4.6,6.899-2.725,16.216,4.16,20.801c5.962,3.97,9.375,10.356,9.375,17.52
			s-3.413,13.55-9.375,17.52c-14.238,9.492-22.734,25.371-22.734,42.48s8.495,32.988,22.734,42.48
			c7.009,4.645,16.276,2.637,20.801-4.16c4.6-6.899,2.739-16.201-4.16-20.801c-5.962-3.97-9.375-10.356-9.375-17.52
			S184.108,107.189,190.07,103.219z"/>
	</g>
</g>
<g>
	<g>
		<path d="M265.07,103.219c14.238-9.492,22.734-25.371,22.734-42.48s-8.496-32.988-22.734-42.48
			c-6.914-4.585-16.23-2.754-20.801,4.16c-4.6,6.899-2.725,16.216,4.16,20.801c5.962,3.97,9.375,10.356,9.375,17.52
			s-3.413,13.55-9.375,17.52c-14.238,9.492-22.734,25.371-22.734,42.48s8.495,32.988,22.734,42.48
			c7.009,4.645,16.276,2.637,20.801-4.16c4.6-6.899,2.739-16.201-4.16-20.801c-5.962-3.97-9.375-10.356-9.375-17.52
			S259.108,107.189,265.07,103.219z"/>
	</g>
</g>
<g>
	<g>
		<path d="M340.07,103.219c14.238-9.492,22.734-25.371,22.734-42.48s-8.496-32.988-22.734-42.48
			c-6.929-4.585-16.23-2.754-20.801,4.16c-4.6,6.899-2.725,16.216,4.16,20.801c5.962,3.97,9.375,10.356,9.375,17.52
			s-3.413,13.55-9.375,17.52c-14.238,9.492-22.734,25.371-22.734,42.48s8.495,32.988,22.734,42.48
			c7.009,4.645,16.276,2.637,20.801-4.16c4.6-6.899,2.739-16.201-4.16-20.801c-5.962-3.97-9.375-10.356-9.375-17.52
			S334.108,107.189,340.07,103.219z"/>
	</g>
</g>
<g>
</g>
<g>
</g>
<g>
</g>
<g>
</g>
<g>
</g>
<g>
</g>
<g>
</g>
<g>
</g>
<g>
</g>
<g>
</g>
<g>
</g>
<g>
</g>
<g>
</g>
<g>
</g>
<g>
</g>
</svg>
