<svg id="Capa_1" enable-background="new 0 0 512 512" height="512" viewBox="0 0 512 512" width="512" xmlns="http://www.w3.org/2000/svg"><path d="m22.865 199.871c7.46-3.178 15.662-4.938 24.269-4.938h113.533v-168.963c-17.076-16.093-40.074-25.97-65.334-25.97-52.567 0-95.333 42.767-95.333 95.333 0 1.095.12 2.186.357 3.254z"/><path d="m489.135 199.871 22.508-101.284c.237-1.068.357-2.159.357-3.254 0-52.566-42.767-95.333-95.335-95.333-25.26 0-48.258 9.877-65.334 25.969v168.964h113.535c8.607 0 16.809 1.76 24.269 4.938z"/><path d="m321.331 25.969c-17.076-16.093-40.072-25.969-65.331-25.969-25.26 0-48.257 9.877-65.333 25.969v168.964h130.664z"/><path d="m111.399 289.199c-61.425 0-111.399 49.974-111.399 111.401 0 61.426 49.974 111.4 111.399 111.4s111.4-49.974 111.4-111.4c.001-61.427-49.974-111.401-111.4-111.401zm-81.399 111.401c0-9.465 1.641-18.551 4.625-27.008l46.775 27.006-46.776 27.008c-2.983-8.458-4.624-17.541-4.624-27.006zm66.399 79.992c-18.553-3.473-34.9-13.252-46.736-27.029l46.736-26.983zm0-105.975-46.734-26.982c11.836-13.776 28.183-23.555 46.734-27.027zm30-54.01c18.553 3.473 34.899 13.251 46.735 27.027l-46.735 26.982zm0 159.985v-54.014l46.736 26.984c-11.835 13.778-28.183 23.557-46.736 27.03zm61.777-52.987-46.776-27.008 46.775-27.006c2.984 8.457 4.625 17.543 4.625 27.008 0 9.466-1.641 18.549-4.624 27.006z"/><path d="m400.599 289.199c-61.426 0-111.399 49.974-111.399 111.4 0 61.427 49.974 111.4 111.399 111.4 61.426.001 111.401-49.973 111.401-111.399 0-61.427-49.975-111.401-111.401-111.401zm-81.4 111.401c0-9.465 1.641-18.551 4.624-27.008l46.776 27.006-46.776 27.008c-2.983-8.458-4.624-17.541-4.624-27.006zm66.4 79.992c-18.553-3.473-34.9-13.252-46.736-27.029l46.736-26.983zm0-105.975-46.734-26.982c11.836-13.776 28.183-23.555 46.734-27.027zm30-54.01c18.553 3.473 34.899 13.251 46.736 27.027l-46.736 26.982zm0 159.985v-54.014l46.737 26.984c-11.836 13.778-28.184 23.557-46.737 27.03zm61.777-52.987-46.777-27.008 46.776-27.006c2.984 8.457 4.625 17.543 4.625 27.008 0 9.466-1.641 18.549-4.624 27.006z"/><path d="m313.622 289.199h-.012c24.006-18.787 54.212-30 86.988-30 30.014 0 57.869 9.407 80.785 25.418 9.348-5.626 15.616-15.869 15.616-27.551 0-17.719-14.415-32.134-32.134-32.134h-417.731c-17.719.001-32.134 14.416-32.134 32.134 0 11.682 6.268 21.925 15.616 27.551 22.917-16.011 50.77-25.418 80.784-25.418 32.777 0 62.982 11.213 86.989 30h-.012c29.392 22.998 49.49 57.351 53.627 96.4h7.991c4.137-39.049 24.234-73.402 53.627-96.4z"/></svg>