<svg id="Capa_1" enable-background="new 0 0 512 512" height="512" viewBox="0 0 512 512" width="512" xmlns="http://www.w3.org/2000/svg"><g><path d="m472.01 289.428c-7.822-2.739-16.348 1.304-19.16 9.141-2.754 7.808 1.348 16.377 9.141 19.131 11.982 4.233 20.009 15.6 20.009 28.3 0 16.538-13.447 30-30 30h-90v-30c33.076 0 60-26.909 60-60v-90c0-16.538-13.447-30-30-30s-30 13.462-30 30v90h-151v-90h-181v90c0 33.091 26.924 60 60 60v30h-75c-8.291 0-15 6.709-15 15s6.709 15 15 15h437c33.076 0 60-26.909 60-60 0-25.386-16.084-48.12-39.99-56.572zm-140.01 86.572h-91v-30h91zm-212-30h91v30h-91z"/><path d="m30 166h181v-45c0-8.286-6.716-15-15-15h-166c-16.569 0-30 13.431-30 30 0 16.567 13.431 30 30 30z"/></g></svg>